<svg width="96" height="95" viewBox="0 0 96 95" fill="none" xmlns="http://www.w3.org/2000/svg">
<path d="M62.8387 7.62659C58.0527 5.81717 53.0712 4.9151 48.1035 4.9151C42.2792 4.9151 36.4707 6.15412 31.0033 8.62161C10.0867 18.0606 0.750227 42.7565 10.1892 63.6731C14.7619 73.805 23.0062 81.5497 33.4043 85.4812C43.8013 89.4117 55.1078 89.0589 65.2407 84.4872C75.3726 79.9146 83.1184 71.6703 87.0488 61.2722C90.9803 50.8741 90.6275 39.5687 86.0548 29.4357C81.4822 19.3038 73.2379 11.5581 62.8398 7.62659H62.8387Z" fill="#934445"/>
<path d="M94.9762 19.5119L77.0532 1.18115C75.6663 -0.237443 73.371 -0.262794 71.9524 1.12411L67.272 5.701C77.1958 10.018 85.0535 17.7575 89.5364 27.6908C89.7677 28.2041 89.9779 28.7206 90.1881 29.2382L94.9192 24.6127C96.3378 23.2258 96.3631 20.9305 94.9762 19.5119Z" fill="#6B994D"/>
<path d="M28.2157 5.94923C28.4629 5.83726 28.7143 5.74009 28.9636 5.6334L24.5124 1.08081C23.1255 -0.337784 20.8302 -0.363136 19.4116 1.02377L1.08081 18.9468C-0.337786 20.3337 -0.363134 22.629 1.02377 24.0476L5.8943 29.0291C10.1363 18.7229 18.0141 10.5525 28.2157 5.94923Z" fill="#6B994D"/>
<path d="M1.02377 75.4391L18.9468 93.7699C20.3337 95.1885 22.629 95.2139 24.0476 93.8269L28.728 89.2501C18.8042 84.933 10.9465 77.1936 6.46364 67.2603C6.23232 66.7469 6.02212 66.2304 5.81192 65.7128L1.08081 70.3383C-0.337786 71.7252 -0.363134 74.0205 1.02377 75.4391Z" fill="#6B994D"/>
<path d="M67.7842 89.0019C67.5371 89.1138 67.2857 89.211 67.0364 89.3177L71.4876 93.8703C72.8745 95.2889 75.1698 95.3142 76.5884 93.9273L94.9192 76.0043C96.3378 74.6174 96.3631 72.322 94.9762 70.9034L90.1057 65.922C85.8636 76.2282 77.9858 84.3986 67.7842 89.0019Z" fill="#6B994D"/>
<path d="M26.4843 45.599H23.588V33.5658H20.9568V30.7973H29.1884V33.5658H26.4833V45.599H26.4843Z" fill="white"/>
<path d="M43.3735 45.5779H40.3916L39.2835 42.5326H33.2035L31.9582 45.5779H29.0513L34.7911 30.7012H37.6346L37.6991 30.9145L36.2509 34.6527L34.2376 39.7641H38.2526L37.2829 37.3463L38.7416 33.6081L43.3745 45.5779H43.3735Z" fill="white"/>
<path d="M49.7206 45.5779H45.5039V30.7012H47.8573C49.2284 30.7012 50.2181 30.7941 50.8286 30.9779C51.7159 31.2473 52.4331 31.6909 52.9792 32.3088C53.5264 32.9194 53.7989 33.6757 53.7989 34.5777C53.7989 35.1386 53.6605 35.6456 53.3838 36.0998C53.163 36.5614 52.7944 36.9988 52.2758 37.4096C53.9869 38.2262 54.8425 39.4969 54.8425 41.2218C54.8425 42.1091 54.6334 42.8685 54.2141 43.5012C53.7313 44.2111 53.1778 44.7403 52.5536 45.0878C51.8511 45.4142 50.9068 45.5779 49.7206 45.5779ZM48.9643 36.5794C49.6456 36.5794 50.1748 36.4199 50.5508 36.0998C50.8698 35.802 51.0304 35.4112 51.0304 34.9284C51.0304 34.4457 50.8709 34.0697 50.5508 33.8204C50.2097 33.5436 49.7269 33.4053 49.1027 33.4053H48.3358V36.5783H48.9643V36.5794ZM49.0287 42.8728C50.2002 42.8728 51.0061 42.7344 51.4455 42.4576C51.8638 42.1386 52.074 41.7013 52.074 41.1478C52.074 40.5299 51.8427 40.0229 51.3811 39.6247C50.8624 39.256 50.0565 39.0712 48.9643 39.0712H48.3358V42.8728H49.0277H49.0287Z" fill="white"/>
<path d="M63.8834 45.5779H56.9722V30.7012H59.7301V42.8728H63.8834V45.5779Z" fill="white"/>
<path d="M74.1072 45.5779H66.0139V30.7012H74.1072V33.4697H68.7824V36.7928H74.1072V39.4874H68.7824V42.8104H74.1072V45.579V45.5779Z" fill="white"/>
<path d="M32.0417 62.1532H29.2489V56.1503H24.4111V62.1532H21.5454V47.4919H24.4111V53.4948H29.2489V47.4919H32.0417V62.1532Z" fill="white"/>
<path d="M41.3074 62.5831C40.2849 62.5831 39.3765 62.3306 38.5779 61.8278C37.7731 61.3588 37.2069 60.7462 36.8784 59.9909C36.514 59.242 36.3323 58.0146 36.3323 56.3066V47.5848H39.1251V57.0618C39.1251 57.8879 39.1906 58.454 39.3237 58.7625C39.7156 59.4902 40.3525 59.8547 41.2334 59.8547C41.7098 59.8547 42.1429 59.7395 42.5348 59.5082C42.8918 59.3054 43.1369 59.0318 43.27 58.6896C43.4094 58.3674 43.4802 57.6893 43.4802 56.6531V47.5848H46.2825V56.3066C46.2825 57.7273 46.1916 58.7487 46.0089 59.3709C45.8621 59.9233 45.5473 60.4663 45.0646 60.9976C44.5745 61.5299 44.0252 61.9208 43.4168 62.1732C42.8295 62.4468 42.126 62.5831 41.3074 62.5831Z" fill="white"/>
<path d="M62.2967 62.1532H59.6307L53.2919 52.5399V62.1532H50.573V47.4919H53.2285L59.4944 57.1791V47.4919H62.2967V62.1532Z" fill="white"/>
<path d="M72.0359 62.1732H69.1808V50.3132H66.5886V47.5848H74.702V50.3132H72.0359V62.1732Z" fill="white"/>
</svg>
