<svg width="25" height="22" viewBox="0 0 25 22" fill="none" xmlns="http://www.w3.org/2000/svg">
<path d="M8.972 2.51389e-06C8.7461 0.00205657 8.55129 0.161654 8.47457 0.285309L6.6114 3.53354H3.18368C1.42992 3.53354 0 4.98841 0 6.77277V18.5514C0 20.3358 1.42992 21.7907 3.18368 21.7907H21.7063C23.4601 21.7907 24.89 20.3358 24.89 18.5514V6.77277C24.89 4.98841 23.4601 3.53354 21.7063 3.53354H18.2786L16.4154 0.285309C16.3129 0.111742 16.1171 -0.00061271 15.918 2.51389e-06H8.972ZM9.29764 1.17776H15.5924L16.94 3.53355H7.94999L9.29764 1.17776ZM3.18372 4.71131H21.7064C22.8387 4.71131 23.7322 5.62042 23.7322 6.77252V18.5512C23.7322 19.7033 22.8387 20.6124 21.7064 20.6124H3.18372C2.05138 20.6124 1.15786 19.7033 1.15786 18.5512V6.77252C1.15786 5.62042 2.05138 4.71131 3.18372 4.71131ZM12.445 5.88907C8.77566 5.88907 5.78847 8.92822 5.78847 12.6618C5.78847 16.3952 8.7755 19.4345 12.445 19.4345C16.1146 19.4345 19.1016 16.3954 19.1016 12.6618C19.1016 8.92838 16.1146 5.88907 12.445 5.88907ZM20.8381 6.18362C20.0457 6.18362 19.391 6.84974 19.391 7.65595C19.391 8.46216 20.0457 9.12828 20.8381 9.12828C21.6305 9.12828 22.2852 8.46216 22.2852 7.65595C22.2852 6.84974 21.6305 6.18362 20.8381 6.18362ZM12.445 7.06707C15.4888 7.06707 17.9439 9.56498 17.9439 12.6619C17.9439 15.7588 15.4889 18.2568 12.445 18.2568C9.40121 18.2568 6.94613 15.7589 6.94613 12.6619C6.94613 9.56504 9.40121 7.06707 12.445 7.06707ZM20.8381 7.36162C21.0049 7.36162 21.1276 7.4865 21.1276 7.65617C21.1276 7.82583 21.0049 7.95072 20.8381 7.95072C20.6714 7.95072 20.5486 7.82583 20.5486 7.65617C20.5486 7.4865 20.6714 7.36162 20.8381 7.36162ZM12.445 8.83395C10.374 8.83395 8.68258 10.5548 8.68258 12.6621C8.68258 14.7693 10.374 16.4902 12.445 16.4902C14.5161 16.4902 16.2075 14.7693 16.2075 12.6621C16.2075 10.5548 14.5161 8.83395 12.445 8.83395ZM12.445 10.0117C13.8905 10.0117 15.0497 11.1914 15.0497 12.6618C15.0497 14.1325 13.8903 15.3121 12.445 15.3121C10.9996 15.3121 9.8404 14.1325 9.8404 12.6618C9.8404 11.1912 10.9998 10.0117 12.445 10.0117Z" fill="white"/>
</svg>
