<svg width="22" height="20" viewBox="0 0 22 20" fill="none" xmlns="http://www.w3.org/2000/svg">
<path d="M20.6873 1.8H16.2587V0.2C16.2587 0.09 16.1638 0 16.0478 0H14.5716C14.4556 0 14.3608 0.09 14.3608 0.2V1.8H7.61245V0.2C7.61245 0.09 7.51755 0 7.40157 0H5.92538C5.80939 0 5.71449 0.09 5.71449 0.2V1.8H1.28592C0.819339 1.8 0.442383 2.1575 0.442383 2.6V19.2C0.442383 19.6425 0.819339 20 1.28592 20H20.6873C21.1539 20 21.5308 19.6425 21.5308 19.2V2.6C21.5308 2.1575 21.1539 1.8 20.6873 1.8ZM19.6329 18.2H2.34034V8.7H19.6329V18.2ZM2.34034 7V3.6H5.71449V4.8C5.71449 4.91 5.80939 5 5.92538 5H7.40157C7.51755 5 7.61245 4.91 7.61245 4.8V3.6H14.3608V4.8C14.3608 4.91 14.4556 5 14.5716 5H16.0478C16.1638 5 16.2587 4.91 16.2587 4.8V3.6H19.6329V7H2.34034Z" fill="#9CA3AF"/>
</svg>
