<svg width="42" height="42" viewBox="0 0 42 42" fill="none" xmlns="http://www.w3.org/2000/svg">
<circle cx="21" cy="21" r="21" fill="#6A994E"/>
<path d="M21 17C18.79 17 17 18.79 17 21C17 23.21 18.79 25 21 25C23.21 25 25 23.21 25 21C25 18.79 23.21 17 21 17ZM29.94 20C29.48 15.83 26.17 12.52 22 12.06V10H20V12.06C15.83 12.52 12.52 15.83 12.06 20H10V22H12.06C12.52 26.17 15.83 29.48 20 29.94V32H22V29.94C26.17 29.48 29.48 26.17 29.94 22H32V20H29.94ZM21 28C17.13 28 14 24.87 14 21C14 17.13 17.13 14 21 14C24.87 14 28 17.13 28 21C28 24.87 24.87 28 21 28Z" fill="white"/>
</svg>
