<svg width="24" height="24" viewBox="0 0 24 24" fill="none" xmlns="http://www.w3.org/2000/svg">
<path d="M12 12C13.6569 12 15 10.6569 15 9C15 7.34315 13.6569 6 12 6C10.3431 6 9 7.34315 9 9C9 10.6569 10.3431 12 12 12Z" stroke="#9CA3AF" stroke-width="2" stroke-linecap="round" stroke-linejoin="round"/>
<path d="M19.5 9.5C19.5 16.25 12 21.5 12 21.5C12 21.5 4.5 16.25 4.5 9.5C4.5 7.51088 5.29018 5.60322 6.6967 4.1967C8.10322 2.79018 10.0109 2 12 2C13.9891 2 15.8968 2.79018 17.3033 4.1967C18.7098 5.60322 19.5 7.51088 19.5 9.5V9.5Z" stroke="#9CA3AF" stroke-width="2" stroke-linecap="round" stroke-linejoin="round"/>
</svg>
