<svg width="32" height="40" viewBox="0 0 32 40" fill="none" xmlns="http://www.w3.org/2000/svg">
<path d="M16 19.9221C13.8 19.9221 12 18.1395 12 15.9608C12 13.7822 13.8 11.9996 16 11.9996C18.2 11.9996 20 13.7822 20 15.9608C20 18.1395 18.2 19.9221 16 19.9221ZM28 16.357C28 9.16728 22.7 4.07706 16 4.07706C9.3 4.07706 4 9.16728 4 16.357C4 20.9917 7.9 27.1316 16 34.4599C24.1 27.1316 28 20.9917 28 16.357ZM16 0.115799C24.4 0.115799 32 6.49343 32 16.357C32 22.9327 26.66 30.7166 16 39.7284C5.34 30.7166 0 22.9327 0 16.357C0 6.49343 7.6 0.115799 16 0.115799Z" fill="#FF4E78"/>
</svg>
