<svg width="17" height="16" viewBox="0 0 17 16" fill="none" xmlns="http://www.w3.org/2000/svg">
<path fill-rule="evenodd" clip-rule="evenodd" d="M8.43537 0C6.1051 0 4.21769 1.79 4.21769 4C4.21769 6.21 6.1051 8 8.43537 8C10.7656 8 12.6531 6.21 12.6531 4C12.6531 1.79 10.7656 0 8.43537 0ZM10.5439 4C10.5439 2.9 9.59488 2 8.43502 2C7.27515 2 6.32617 2.9 6.32617 4C6.32617 5.1 7.27515 6 8.43502 6C9.59488 6 10.5439 5.1 10.5439 4ZM14.7615 13C14.5506 12.29 11.2819 11 8.43493 11C5.58799 11 2.31928 12.29 2.1084 13.01V14H14.7615V13ZM0 13C0 10.34 5.62007 9 8.43537 9C11.2507 9 16.8707 10.34 16.8707 13V16H0V13Z" fill="#9CA3AF"/>
</svg>
