<svg width="24" height="24" viewBox="0 0 24 24" fill="none" xmlns="http://www.w3.org/2000/svg">
<path d="M3 5H1V21C1 22.1 1.9 23 3 23H19V21H3V5ZM21 1H7C5.9 1 5 1.9 5 3V17C5 18.1 5.9 19 7 19H21C22.1 19 23 18.1 23 17V3C23 1.9 22.1 1 21 1ZM21 17H7V3H21V17Z" fill="#6A994E"/>
<path d="M14 5C11.24 5 9 7.24 9 10C9 12.76 11.24 15 14 15C16.76 15 19 12.76 19 10C19 7.24 16.76 5 14 5ZM11.535 13.14C11.75 12.69 13.06 12.25 14 12.25C14.94 12.25 16.255 12.69 16.465 13.14C15.785 13.68 14.93 14 14 14C13.07 14 12.215 13.68 11.535 13.14ZM17.18 12.415C16.465 11.545 14.73 11.25 14 11.25C13.27 11.25 11.535 11.545 10.82 12.415C10.31 11.745 10 10.91 10 10C10 7.795 11.795 6 14 6C16.205 6 18 7.795 18 10C18 10.91 17.69 11.745 17.18 12.415ZM14 7C13.03 7 12.25 7.78 12.25 8.75C12.25 9.72 13.03 10.5 14 10.5C14.97 10.5 15.75 9.72 15.75 8.75C15.75 7.78 14.97 7 14 7ZM14 9.5C13.585 9.5 13.25 9.165 13.25 8.75C13.25 8.335 13.585 8 14 8C14.415 8 14.75 8.335 14.75 8.75C14.75 9.165 14.415 9.5 14 9.5Z" fill="#6A994E"/>
</svg>
